<svg viewBox="0 0 48 48" xmlns="http://www.w3.org/2000/svg" fill="#0E8388"><g stroke-width="0"/><g stroke-linecap="round" stroke-linejoin="round"/><g data-name="Layer 2"><path fill="none" data-name="invisible box" d="M0 0h48v48H0z"/><g data-name="icons Q2"><circle cx="24" cy="24" r="2"/><circle cx="24" cy="16" r="2"/><circle cx="24" cy="8" r="2"/><circle cx="24" cy="40" r="2"/><circle cx="24" cy="32" r="2"/><circle cx="32" cy="24" r="2"/><circle cx="40" cy="24" r="2"/><circle cx="8" cy="24" r="2"/><circle cx="16" cy="24" r="2"/><path d="M42 12a4 4 0 0 0-3.5 2H34V9.5a4 4 0 1 0-4 0V18h8.5a4 4 0 1 0 3.5-6M2 16a4 4 0 0 0 7.5 2H18V9.5a4 4 0 1 0-4 0V14H9.5A4 4 0 0 0 2 16m40 12a4 4 0 0 0-3.5 2H30v8.5a4 4 0 1 0 4 0V34h4.5a4 4 0 1 0 3.5-6M18 38.5V30H9.5a4 4 0 1 0 0 4H14v4.5a4 4 0 1 0 4 0"/></g></g></svg>