<svg height="200px" width="200px" version="1.1" id="Layer_1" xmlns="http://www.w3.org/2000/svg" xmlns:xlink="http://www.w3.org/1999/xlink" viewBox="0 0 512 512" xml:space="preserve" fill="#000000"><g id="SVGRepo_bgCarrier" stroke-width="0"></g><g id="SVGRepo_tracerCarrier" stroke-linecap="round" stroke-linejoin="round"></g><g id="SVGRepo_iconCarrier"> <circle style="fill:#45B39C;" cx="256" cy="256" r="256"></circle> <path style="opacity:0.1;enable-background:new ;" d="M504.715,316.629L326.704,138.619h-4.816L306,122.731l-15.888,4.256 l-8.224-14.245l-14.245,8.224L256,109.333l-11.632,11.632l-14.245-8.224l-8.224,14.245l-15.888-4.256l-4.256,15.888h-16.453v16.453 l-15.888,4.256l4.256,15.888l-14.245,8.224l8.224,14.245l-11.632,11.632l11.632,11.632l-8.224,14.245l14.245,8.224l-4.256,15.888 l15.888,4.256v16.453h16.453l2.155,8.043l-43.52,93.013l128.709,128.715C394.645,496.165,480.016,418.293,504.715,316.629z"></path> <polygon style="fill:#E56353;" points="221.477,250.512 160.384,381.088 191.077,375.552 244.539,261.301 "></polygon> <polygon style="fill:#CE412D;" points="244.539,261.301 191.077,375.552 206.507,402.667 267.6,272.091 "></polygon> <polygon style="fill:#E56353;" points="290.523,250.512 351.616,381.088 320.923,375.552 267.461,261.301 "></polygon> <polygon style="fill:#D15241;" points="267.461,261.301 320.923,375.552 305.493,402.667 244.4,272.091 "></polygon> <polygon style="fill:#FCD462;" points="344.357,220.96 355.989,209.328 344.357,197.691 352.587,183.445 338.336,175.221 342.597,159.328 326.704,155.072 326.704,138.619 310.256,138.619 305.995,122.731 290.107,126.987 281.883,112.741 267.632,120.965 256,109.333 244.368,120.965 230.117,112.741 221.893,126.987 206.005,122.731 201.744,138.619 185.296,138.619 185.296,155.072 169.403,159.328 173.664,175.221 159.413,183.445 167.643,197.691 156.011,209.328 167.643,220.96 159.413,235.205 173.664,243.429 169.403,259.323 185.296,263.579 185.296,280.032 201.744,280.032 206.005,295.92 221.893,291.664 230.117,305.909 244.368,297.685 256,309.317 267.632,297.685 281.883,305.909 290.107,291.664 305.995,295.92 310.256,280.032 326.704,280.032 326.704,263.579 342.597,259.323 338.336,243.429 352.587,235.205 "></polygon> <path style="fill:#E56353;" d="M256,281.056c-39.552,0-71.728-32.176-71.728-71.728s32.176-71.733,71.728-71.733 s71.728,32.181,71.728,71.733S295.552,281.056,256,281.056z M256,148.261c-33.669,0-61.061,27.392-61.061,61.067 c0,33.669,27.392,61.061,61.061,61.061s61.067-27.392,61.067-61.061C317.067,175.653,289.675,148.261,256,148.261z"></path> </g></svg>